<?xml version="1.0" encoding="utf-8"?>
<!-- Generator: Adobe Illustrator 16.0.0, SVG Export Plug-In . SVG Version: 6.00 Build 0)  -->
<!DOCTYPE svg PUBLIC "-//W3C//DTD SVG 1.1//EN" "http://www.w3.org/Graphics/SVG/1.1/DTD/svg11.dtd">
<svg version="1.1" id="Layer_1" xmlns="http://www.w3.org/2000/svg" xmlns:xlink="http://www.w3.org/1999/xlink" x="0px" y="0px"
	 width="512px" height="512px" viewBox="0 0 512 512" enable-background="new 0 0 512 512" xml:space="preserve">
<g>
	<path fill="#FF0000" d="M419.749,176.306c-22.174-20.857-50.359-28.397-78.098-35.98c-0.755-4.659-0.26-9.948,1.069-15.326h-173.57
		c-16.792,10.155-28.932,28.324-46.674,39.778c-24.409,15.757-47.917,28.331-53.889,57.533h381.335
		C443.069,204.963,433.178,188.938,419.749,176.306z"/>
	<path fill="#FF0000" d="M447.223,397.226c6.343-13.793,11.781-28.669,14.055-43.726c1.684-11.152,2.617-22.909,2.886-34.811H50.66
		c-0.096,1.594-0.16,3.194-0.16,4.807c-0.002,16.764-0.156,31.401,5.751,46.229c6.528,16.391,17.328,30.11,22.766,46.274h357.536
		C439.556,409.458,444.312,403.557,447.223,397.226z"/>
</g>
<g>
	<path d="M344,256l-84.4,64.2C258.4,320.1,257.2,320,256,320c-17.7,0-32,14.3-32,32s14.3,32,32,32s32-14.3,32-32
		c0-1.2-0.1-2.4-0.2-3.6L352,264L344,256z"/>
	<path d="M256,96C132.3,96,32,196.3,32,320c0,34.4,7.8,66.9,21.6,96h36.1c-15.4-26.6-24.2-56.6-25.5-88H96v-16H64.2
		c1.2-28.8,8.7-56.5,21.8-81.4l27.5,15.9l8-13.9L94,216.8c7.4-11.6,16.2-22.6,26.2-32.6c10.2-10.1,21.3-19,33.1-26.5l15.8,27.3
		l13.9-8l-15.8-27.3c24.8-13,52.2-20.3,80.8-21.5V160h16v-31.8c28.6,1.2,56,8.6,80.8,21.5L329.1,177l13.9,8l15.8-27.3
		c11.8,7.5,22.9,16.4,33.101,26.5c10,10,18.699,20.9,26.199,32.6L390.7,232.6l8,13.9l27.5-15.9c13.1,24.9,20.6,52.6,21.8,81.4h-32
		v16h31.8c-1.3,31.4-10.1,61.4-25.5,88H458.4c13.8-29.1,21.6-61.6,21.6-96C480,196.3,379.7,96,256,96z"/>
</g>
</svg>
